<svg width="100%" height="100%" viewBox="0 0 358 220" fill="none" xmlns="http://www.w3.org/2000/svg">
  <g clip-path="url(#clip0_508_1894)">
    <rect width="358" height="220" rx="12" fill="url(#paint0_linear_508_1894)" />
    <path
      d="M22.3535 191.141C20.0039 191.141 18.4922 189.43 18.4922 186.77V186.764C18.4922 184.104 19.998 182.404 22.3535 182.404C24.1113 182.404 25.4766 183.471 25.7988 185.07L25.8105 185.129H24.7441L24.7031 185C24.375 183.975 23.543 183.377 22.3535 183.377C20.666 183.377 19.5762 184.707 19.5762 186.764V186.77C19.5762 188.826 20.6719 190.168 22.3535 190.168C23.5371 190.168 24.3574 189.582 24.7266 188.469L24.7441 188.416H25.8105L25.7988 188.475C25.4766 190.092 24.123 191.141 22.3535 191.141ZM26.9004 191V184.906H27.8613V185.891H27.8848C28.084 185.217 28.6465 184.789 29.3613 184.789C29.5371 184.789 29.6895 184.818 29.7715 184.83V185.82C29.6895 185.791 29.4727 185.762 29.2266 185.762C28.4355 185.762 27.9199 186.33 27.9199 187.191V191H26.9004ZM31.1895 193.051C30.9902 193.051 30.7734 193.027 30.6445 193.004V192.172C30.7324 192.189 30.8496 192.207 30.9727 192.207C31.6172 192.207 31.9746 192.043 32.2207 191.352L32.3438 191.006L30.082 184.906H31.1719L32.8535 189.98H32.877L34.5645 184.906H35.6367L33.2578 191.381C32.8242 192.547 32.291 193.051 31.1895 193.051ZM36.4395 193.051V184.906H37.459V185.938H37.4824C37.8633 185.229 38.543 184.789 39.416 184.789C40.9746 184.789 42.0059 186.031 42.0059 187.953V187.959C42.0059 189.881 40.9629 191.117 39.4336 191.117C38.5723 191.117 37.8633 190.684 37.4824 189.98H37.459V193.051H36.4395ZM39.2168 190.215C40.2949 190.215 40.9629 189.348 40.9629 187.959V187.953C40.9629 186.553 40.2949 185.691 39.2168 185.691C38.1855 185.691 37.4531 186.588 37.4531 187.953V187.959C37.4531 189.318 38.1914 190.215 39.2168 190.215ZM45.0176 191.117C43.8984 191.117 43.3477 190.613 43.3477 189.447V185.75H42.457V184.906H43.3477V183.26H44.4023V184.906H45.5625V185.75H44.4023V189.441C44.4023 190.092 44.6895 190.273 45.2344 190.273C45.3574 190.273 45.4746 190.256 45.5625 190.25V191.076C45.4336 191.094 45.2168 191.117 45.0176 191.117ZM49.0078 191.117C47.3145 191.117 46.1836 189.893 46.1836 187.953V187.941C46.1836 186.002 47.3203 184.789 49.002 184.789C50.6836 184.789 51.8262 185.996 51.8262 187.941V187.953C51.8262 189.898 50.6895 191.117 49.0078 191.117ZM49.0137 190.215C50.0859 190.215 50.7832 189.383 50.7832 187.953V187.941C50.7832 186.512 50.0801 185.691 49.002 185.691C47.9414 185.691 47.2266 186.518 47.2266 187.941V187.953C47.2266 189.389 47.9355 190.215 49.0137 190.215ZM55.4766 191V182.545H56.502L61.1543 189.219H61.1836V182.545H62.2266V191H61.2012L56.5488 184.326H56.5195V191H55.4766ZM66.2344 191.117C64.541 191.117 63.4102 189.893 63.4102 187.953V187.941C63.4102 186.002 64.5469 184.789 66.2285 184.789C67.9102 184.789 69.0527 185.996 69.0527 187.941V187.953C69.0527 189.898 67.916 191.117 66.2344 191.117ZM66.2402 190.215C67.3125 190.215 68.0098 189.383 68.0098 187.953V187.941C68.0098 186.512 67.3066 185.691 66.2285 185.691C65.168 185.691 64.4531 186.518 64.4531 187.941V187.953C64.4531 189.389 65.1621 190.215 66.2402 190.215ZM72.6094 191.117C70.916 191.117 69.7852 189.893 69.7852 187.953V187.941C69.7852 186.002 70.9219 184.789 72.6035 184.789C74.2852 184.789 75.4277 185.996 75.4277 187.941V187.953C75.4277 189.898 74.291 191.117 72.6094 191.117ZM72.6152 190.215C73.6875 190.215 74.3848 189.383 74.3848 187.953V187.941C74.3848 186.512 73.6816 185.691 72.6035 185.691C71.543 185.691 70.8281 186.518 70.8281 187.941V187.953C70.8281 189.389 71.5371 190.215 72.6152 190.215ZM79.4883 191.117C78.6152 191.117 77.9355 190.678 77.5547 189.969H77.5312V191H76.5117V182.545H77.5312V185.926H77.5547C77.9355 185.223 78.6445 184.789 79.5059 184.789C81.0352 184.789 82.0781 186.025 82.0781 187.947V187.953C82.0781 189.875 81.0469 191.117 79.4883 191.117ZM79.2891 190.215C80.3672 190.215 81.0352 189.354 81.0352 187.953V187.947C81.0352 186.559 80.3672 185.691 79.2891 185.691C78.2637 185.691 77.5254 186.588 77.5254 187.947V187.953C77.5254 189.318 78.2578 190.215 79.2891 190.215Z"
      fill="white" />
    <path
      d="M311.699 191.141C309.754 191.141 308.6 189.459 308.6 186.775V186.764C308.6 184.08 309.754 182.404 311.699 182.404C313.645 182.404 314.811 184.08 314.811 186.764V186.775C314.811 189.459 313.645 191.141 311.699 191.141ZM311.699 190.221C312.988 190.221 313.75 188.896 313.75 186.775V186.764C313.75 184.643 312.988 183.33 311.699 183.33C310.41 183.33 309.66 184.643 309.66 186.764V186.775C309.66 188.896 310.41 190.221 311.699 190.221ZM319.088 191.141C317.529 191.141 315.877 190.062 315.877 186.928V186.916C315.877 184.068 317.09 182.404 319.158 182.404C320.594 182.404 321.666 183.225 321.947 184.455L321.965 184.531H320.893L320.869 184.467C320.617 183.77 320.014 183.336 319.146 183.336C317.518 183.336 316.908 184.965 316.896 186.822H316.92C317.26 186.072 318.127 185.463 319.275 185.463C320.887 185.463 322.082 186.652 322.082 188.258V188.27C322.082 189.934 320.816 191.141 319.088 191.141ZM317.148 188.258C317.148 189.342 317.992 190.203 319.076 190.203C320.154 190.203 321.01 189.359 321.01 188.293V188.281C321.01 187.18 320.207 186.389 319.094 186.389C317.986 186.389 317.148 187.174 317.148 188.252V188.258ZM326.107 182.545L323.723 193.051H322.75L325.135 182.545H326.107ZM326.787 191V190.273L329.764 187.168C330.906 185.979 331.17 185.521 331.17 184.818V184.807C331.164 183.945 330.514 183.324 329.594 183.324C328.539 183.324 327.754 184.051 327.754 184.959V184.988H326.734V184.953C326.734 183.488 328 182.404 329.576 182.404C331.105 182.404 332.225 183.43 332.225 184.754V184.766C332.225 185.691 331.797 186.389 330.244 187.977L328.234 190.039V190.062H332.371V191H326.787ZM336.432 191.141C334.686 191.141 333.555 190.168 333.443 188.832L333.438 188.762H334.451L334.457 188.82C334.545 189.652 335.307 190.227 336.432 190.227C337.539 190.227 338.295 189.605 338.295 188.709V188.697C338.295 187.66 337.551 187.08 336.367 187.08H335.307V186.189H336.32C337.328 186.189 338.031 185.568 338.031 184.725V184.713C338.031 183.828 337.451 183.318 336.42 183.318C335.424 183.318 334.715 183.846 334.627 184.701L334.621 184.76H333.607L333.613 184.701C333.748 183.324 334.838 182.404 336.42 182.404C338.031 182.404 339.092 183.301 339.092 184.584V184.596C339.092 185.639 338.354 186.354 337.299 186.576V186.6C338.529 186.705 339.367 187.473 339.367 188.674V188.686C339.367 190.098 338.125 191.141 336.432 191.141Z"
      fill="white" />
    <path
      d="M19.3835 37.4266L19.3796 37.4318L19.3758 37.4372C19.1646 37.7362 18.6916 37.8241 18.3218 37.5628C18.0257 37.3537 17.9367 36.8876 18.1888 36.5192C18.565 36.0396 18.8383 35.4788 19.0177 34.9307C19.2045 34.36 19.2914 33.7115 19.2881 33.0755C19.2847 32.4395 19.1909 31.792 18.9981 31.2234C18.8128 30.6771 18.5337 30.1193 18.1524 29.6438C17.8964 29.2781 17.9804 28.8111 18.2743 28.5988C18.6414 28.3336 19.1152 28.4164 19.3295 28.7132L19.3334 28.7185L19.3374 28.7237C19.8119 29.3496 20.2011 30.045 20.4337 30.7273C20.6785 31.5299 20.8345 32.3062 20.8385 33.0672C20.8427 33.868 20.7662 34.626 20.4724 35.3722C20.1524 36.1848 19.8425 36.8075 19.3835 37.4266Z"
      fill="white" />
    <path
      d="M22.8146 38.9128L22.8239 38.8997L22.8324 38.886C23.8843 37.2005 24.491 35.1666 24.4798 33.0477C24.4685 30.9294 23.8406 28.9026 22.7714 27.2286C22.5397 26.8611 22.6438 26.4266 23.0344 26.1444C23.2967 25.9549 23.7891 26.022 24.0813 26.4136C25.2884 28.3292 26.0175 30.645 26.0302 33.0394C26.0433 35.5156 25.3393 37.7562 24.1515 39.6859C23.8767 40.0642 23.456 40.1702 23.0933 39.9558C22.7001 39.6676 22.6282 39.1768 22.8146 38.9128Z"
      fill="white" />
    <path
      d="M28.9722 23.8955L28.9826 23.916L28.9946 23.9355C30.6302 26.6029 31.5392 29.6796 31.5568 33.0099C31.5744 36.3386 30.699 39.4236 29.0931 42.1074C28.8469 42.5034 28.4312 42.615 28.0099 42.4188C27.6264 42.1689 27.5233 41.7546 27.7237 41.3362C29.0894 38.9102 29.9387 36.0516 29.9226 33.0186C29.9066 29.9992 29.1173 27.1451 27.6327 24.7191C27.4319 24.3048 27.5314 23.8923 27.9103 23.6394C28.3675 23.4209 28.8129 23.581 28.9722 23.8955Z"
      fill="white" />
    <path
      d="M33.8156 21.3569L33.8227 21.3708L33.8305 21.3844C35.8126 24.8115 36.9771 28.7296 36.9997 32.9807C37.0222 37.2275 35.9016 41.1542 33.9596 44.5997C33.713 44.9911 33.2993 45.1007 32.8799 44.9055C32.4976 44.6563 32.394 44.2438 32.5918 43.8268C34.4627 40.6332 35.4701 36.9333 35.4492 32.989C35.4283 29.0346 34.293 25.3491 32.4794 22.1871C32.2522 21.7255 32.4123 21.2734 32.7295 21.1127C33.1951 20.8767 33.6535 21.0369 33.8156 21.3569Z"
      fill="white" />
    <path
      d="M45.1465 37L48.2637 28.5449H49.3066L52.4238 37H51.3164L50.4668 34.5801H47.1035L46.2539 37H45.1465ZM48.7734 29.8105L47.4141 33.6836H50.1562L48.7969 29.8105H48.7734ZM53.3906 37V28.5449H56.4023C57.9902 28.5449 59.1152 29.6406 59.1152 31.2461V31.2578C59.1152 32.8633 57.9902 33.9824 56.4023 33.9824H54.4453V37H53.3906ZM56.1328 29.4824H54.4453V33.0449H56.1328C57.3398 33.0449 58.0371 32.3828 58.0371 31.2695V31.2578C58.0371 30.1445 57.3398 29.4824 56.1328 29.4824ZM66.3223 37.1406C63.9727 37.1406 62.4609 35.4297 62.4609 32.7695V32.7637C62.4609 30.1035 63.9668 28.4043 66.3223 28.4043C68.0801 28.4043 69.4453 29.4707 69.7676 31.0703L69.7793 31.1289H68.7129L68.6719 31C68.3438 29.9746 67.5117 29.377 66.3223 29.377C64.6348 29.377 63.5449 30.707 63.5449 32.7637V32.7695C63.5449 34.8262 64.6406 36.168 66.3223 36.168C67.5059 36.168 68.3262 35.582 68.6953 34.4688L68.7129 34.416H69.7793L69.7676 34.4746C69.4453 36.0918 68.0918 37.1406 66.3223 37.1406ZM72.6504 37.1172C71.4375 37.1172 70.623 36.3848 70.623 35.2773V35.2656C70.623 34.2285 71.4316 33.5781 72.832 33.4961L74.5781 33.3965V32.8867C74.5781 32.1426 74.0918 31.6914 73.2422 31.6914C72.457 31.6914 71.9648 32.0664 71.8477 32.6113L71.8359 32.6641H70.8516L70.8574 32.5996C70.9453 31.5977 71.8184 30.7891 73.2539 30.7891C74.6953 30.7891 75.5977 31.5684 75.5977 32.7871V37H74.5781V36.0098H74.5547C74.1973 36.6777 73.4648 37.1172 72.6504 37.1172ZM71.666 35.2773C71.666 35.8633 72.1465 36.2324 72.8789 36.2324C73.8398 36.2324 74.5781 35.5703 74.5781 34.6855V34.1875L72.9492 34.2871C72.1348 34.334 71.666 34.6973 71.666 35.2656V35.2773ZM76.8926 37V30.9062H77.8535V31.8906H77.877C78.0762 31.2168 78.6387 30.7891 79.3535 30.7891C79.5293 30.7891 79.6816 30.8184 79.7637 30.8301V31.8203C79.6816 31.791 79.4648 31.7617 79.2188 31.7617C78.4277 31.7617 77.9121 32.3301 77.9121 33.1914V37H76.8926ZM82.5938 37.1172C81.0352 37.1172 80.0039 35.875 80.0039 33.9531V33.9473C80.0039 32.0254 81.0469 30.7891 82.5762 30.7891C83.4375 30.7891 84.1465 31.2227 84.5273 31.9258H84.5508V28.5449H85.5703V37H84.5508V35.9688H84.5273C84.1465 36.6777 83.4668 37.1172 82.5938 37.1172ZM82.793 36.2148C83.8242 36.2148 84.5566 35.3184 84.5566 33.9531V33.9473C84.5566 32.5879 83.8184 31.6914 82.793 31.6914C81.7148 31.6914 81.0469 32.5586 81.0469 33.9473V33.9531C81.0469 35.3535 81.7148 36.2148 82.793 36.2148Z"
      fill="white" />
    <path fill-rule="evenodd" clip-rule="evenodd"
      d="M305 104.473C305 102.003 306.97 100 309.4 100H335.798C338.228 100 340.198 102.003 340.198 104.473V122.921C340.198 125.392 338.228 127.394 335.798 127.394H309.4C306.97 127.394 305 125.392 305 122.921V104.473ZM329.073 100.864H335.798C337.759 100.864 339.348 102.48 339.348 104.473V107.995H329.073V100.864ZM328.224 100.864H309.4C307.439 100.864 305.85 102.48 305.85 104.473V107.995H314.899C316.349 107.995 317.524 109.19 317.524 110.663V126.531H328.224V100.864ZM329.073 126.531H335.798C337.759 126.531 339.348 124.915 339.348 122.921V122.061H329.073V126.531ZM339.348 121.197V115.46H329.073V121.197H339.348ZM339.348 114.596V108.859H329.073V114.596H339.348ZM316.674 126.531V122.061H305.85V122.921C305.85 124.915 307.439 126.531 309.4 126.531H316.674ZM305.85 121.197H316.674V115.46H305.85V121.197ZM305.85 114.596H316.674V110.663C316.674 109.667 315.88 108.859 314.899 108.859H305.85V114.596Z"
      fill="white" />
    <path
      d="M328.224 100.864H309.4C307.439 100.864 305.85 102.48 305.85 104.473V107.995H314.899C316.349 107.995 317.524 109.19 317.524 110.663V126.531H328.224V100.864Z"
      fill="white" fill-opacity="0.26" />
    <path d="M316.674 114.596H305.85V108.859H314.899C315.88 108.859 316.674 109.667 316.674 110.663V114.596Z"
      fill="white" fill-opacity="0.26" />
    <path d="M316.674 121.197H305.85V115.46H316.674V121.197Z" fill="white" fill-opacity="0.26" />
    <path d="M316.674 122.061V126.531H309.4C307.439 126.531 305.85 124.915 305.85 122.921V122.061H316.674Z" fill="white"
      fill-opacity="0.26" />
    <path d="M335.798 100.864H329.073V107.995H339.348V104.473C339.348 102.48 337.759 100.864 335.798 100.864Z"
      fill="white" fill-opacity="0.26" />
    <path d="M339.348 114.596V108.859H329.073V114.596H339.348Z" fill="white" fill-opacity="0.26" />
    <path d="M339.348 121.197V115.46H329.073V121.197H339.348Z" fill="white" fill-opacity="0.26" />
    <path d="M329.073 126.531H335.798C337.759 126.531 339.348 124.915 339.348 122.921V122.061H329.073V126.531Z"
      fill="white" fill-opacity="0.26" />
    <path fill-rule="evenodd" clip-rule="evenodd" d="M312.683 42.4343H323.197V23.5657H312.683V42.4343Z"
      fill="#FF5F00" />
    <path fill-rule="evenodd" clip-rule="evenodd"
      d="M313.351 33.0002C313.351 29.1722 315.146 25.7629 317.94 23.5659C315.896 21.9589 313.318 21.0002 310.515 21.0002C303.879 21.0002 298.5 26.3729 298.5 33.0002C298.5 39.6275 303.879 45.0002 310.515 45.0002C313.318 45.0002 315.896 44.0415 317.94 42.4345C315.146 40.2372 313.351 36.8282 313.351 33.0002Z"
      fill="#EB001B" />
    <path fill-rule="evenodd" clip-rule="evenodd"
      d="M337.005 40.4359V39.9703H336.883L336.744 40.2906L336.603 39.9703H336.482V40.4359H336.567V40.0846L336.699 40.3876H336.788L336.919 40.0839V40.4359H337.005ZM336.234 40.4359V40.0496H336.39V39.9709H335.993V40.0496H336.149V40.4359H336.234ZM337.38 33C337.38 39.6273 332.001 44.9999 325.366 44.9999C322.563 44.9999 319.984 44.0413 317.94 42.4343C320.735 40.2373 322.529 36.8279 322.529 33C322.529 29.1723 320.735 25.763 317.94 23.5657C319.984 21.9587 322.563 21 325.366 21C332.001 21 337.38 26.3726 337.38 33Z"
      fill="#F79E1B" />
    <path
      d="M24.0016 118.5C22.891 118.5 21.9464 118.111 21.1678 117.334C20.3893 116.556 20 115.612 20 114.502C20 113.391 20.3887 112.446 21.1662 111.668C21.9436 110.889 22.8877 110.5 23.9984 110.5C25.109 110.5 26.0536 110.889 26.8322 111.666C27.6107 112.444 28 113.388 28 114.498C28 115.609 27.6113 116.554 26.8338 117.332C26.0564 118.111 25.1123 118.5 24.0016 118.5Z"
      fill="white" />
    <path
      d="M35.0016 118.5C33.891 118.5 32.9464 118.111 32.1678 117.334C31.3893 116.556 31 115.612 31 114.502C31 113.391 31.3887 112.446 32.1662 111.668C32.9436 110.889 33.8877 110.5 34.9984 110.5C36.109 110.5 37.0536 110.889 37.8322 111.666C38.6107 112.444 39 113.388 39 114.498C39 115.609 38.6113 116.554 37.8338 117.332C37.0564 118.111 36.1123 118.5 35.0016 118.5Z"
      fill="white" />
    <path
      d="M46.0016 118.5C44.891 118.5 43.9464 118.111 43.1678 117.334C42.3893 116.556 42 115.612 42 114.502C42 113.391 42.3887 112.446 43.1662 111.668C43.9436 110.889 44.8877 110.5 45.9984 110.5C47.109 110.5 48.0536 110.889 48.8322 111.666C49.6107 112.444 50 113.388 50 114.498C50 115.609 49.6113 116.554 48.8338 117.332C48.0564 118.111 47.1123 118.5 46.0016 118.5Z"
      fill="white" />
    <path
      d="M57.0016 118.5C55.891 118.5 54.9464 118.111 54.1678 117.334C53.3893 116.556 53 115.612 53 114.502C53 113.391 53.3887 112.446 54.1662 111.668C54.9436 110.889 55.8877 110.5 56.9984 110.5C58.109 110.5 59.0536 110.889 59.8322 111.666C60.6107 112.444 61 113.388 61 114.498C61 115.609 60.6113 116.554 59.8338 117.332C59.0564 118.111 58.1123 118.5 57.0016 118.5Z"
      fill="white" />
    <path
      d="M81.0016 118.5C79.891 118.5 78.9464 118.111 78.1678 117.334C77.3893 116.556 77 115.612 77 114.502C77 113.391 77.3887 112.446 78.1662 111.668C78.9436 110.889 79.8877 110.5 80.9984 110.5C82.109 110.5 83.0536 110.889 83.8322 111.666C84.6107 112.444 85 113.388 85 114.498C85 115.609 84.6113 116.554 83.8338 117.332C83.0564 118.111 82.1123 118.5 81.0016 118.5Z"
      fill="white" />
    <path
      d="M92.0016 118.5C90.891 118.5 89.9464 118.111 89.1678 117.334C88.3893 116.556 88 115.612 88 114.502C88 113.391 88.3887 112.446 89.1662 111.668C89.9436 110.889 90.8877 110.5 91.9984 110.5C93.109 110.5 94.0536 110.889 94.8322 111.666C95.6107 112.444 96 113.388 96 114.498C96 115.609 95.6113 116.554 94.8338 117.332C94.0564 118.111 93.1123 118.5 92.0016 118.5Z"
      fill="white" />
    <path
      d="M103.002 118.5C101.891 118.5 100.946 118.111 100.168 117.334C99.3893 116.556 99 115.612 99 114.502C99 113.391 99.3887 112.446 100.166 111.668C100.944 110.889 101.888 110.5 102.998 110.5C104.109 110.5 105.054 110.889 105.832 111.666C106.611 112.444 107 113.388 107 114.498C107 115.609 106.611 116.554 105.834 117.332C105.056 118.111 104.112 118.5 103.002 118.5Z"
      fill="white" />
    <path
      d="M114.002 118.5C112.891 118.5 111.946 118.111 111.168 117.334C110.389 116.556 110 115.612 110 114.502C110 113.391 110.389 112.446 111.166 111.668C111.944 110.889 112.888 110.5 113.998 110.5C115.109 110.5 116.054 110.889 116.832 111.666C117.611 112.444 118 113.388 118 114.498C118 115.609 117.611 116.554 116.834 117.332C116.056 118.111 115.112 118.5 114.002 118.5Z"
      fill="white" />
    <path
      d="M138.002 118.5C136.891 118.5 135.946 118.111 135.168 117.334C134.389 116.556 134 115.612 134 114.502C134 113.391 134.389 112.446 135.166 111.668C135.944 110.889 136.888 110.5 137.998 110.5C139.109 110.5 140.054 110.889 140.832 111.666C141.611 112.444 142 113.388 142 114.498C142 115.609 141.611 116.554 140.834 117.332C140.056 118.111 139.112 118.5 138.002 118.5Z"
      fill="white" />
    <path
      d="M149.002 118.5C147.891 118.5 146.946 118.111 146.168 117.334C145.389 116.556 145 115.612 145 114.502C145 113.391 145.389 112.446 146.166 111.668C146.944 110.889 147.888 110.5 148.998 110.5C150.109 110.5 151.054 110.889 151.832 111.666C152.611 112.444 153 113.388 153 114.498C153 115.609 152.611 116.554 151.834 117.332C151.056 118.111 150.112 118.5 149.002 118.5Z"
      fill="white" />
    <path
      d="M160.002 118.5C158.891 118.5 157.946 118.111 157.168 117.334C156.389 116.556 156 115.612 156 114.502C156 113.391 156.389 112.446 157.166 111.668C157.944 110.889 158.888 110.5 159.998 110.5C161.109 110.5 162.054 110.889 162.832 111.666C163.611 112.444 164 113.388 164 114.498C164 115.609 163.611 116.554 162.834 117.332C162.056 118.111 161.112 118.5 160.002 118.5Z"
      fill="white" />
    <path
      d="M171.002 118.5C169.891 118.5 168.946 118.111 168.168 117.334C167.389 116.556 167 115.612 167 114.502C167 113.391 167.389 112.446 168.166 111.668C168.944 110.889 169.888 110.5 170.998 110.5C172.109 110.5 173.054 110.889 173.832 111.666C174.611 112.444 175 113.388 175 114.498C175 115.609 174.611 116.554 173.834 117.332C173.056 118.111 172.112 118.5 171.002 118.5Z"
      fill="white" />
    <path
      d="M193.263 121V109.996H193.228L189.87 112.334V110.743L193.245 108.317H194.792V121H193.263ZM203.133 121V109.996H203.098L199.741 112.334V110.743L203.116 108.317H204.662V121H203.133ZM209.769 121V119.91L214.234 115.252C215.948 113.468 216.343 112.782 216.343 111.728V111.71C216.335 110.418 215.359 109.486 213.979 109.486C212.397 109.486 211.219 110.576 211.219 111.938V111.982H209.69V111.93C209.69 109.732 211.589 108.106 213.953 108.106C216.247 108.106 217.926 109.645 217.926 111.631V111.648C217.926 113.037 217.284 114.083 214.955 116.465L211.94 119.559V119.594H218.145V121H209.769ZM225.089 121V109.996H225.054L221.696 112.334V110.743L225.071 108.317H226.618V121H225.089Z"
      fill="white" />
  </g>
  <rect x="0.5" y="0.5" width="357" height="219" rx="11.5" stroke="url(#paint1_linear_508_1894)" />
  <defs>
    <linearGradient id="paint0_linear_508_1894" x1="5.33462e-06" y1="220" x2="353.373" y2="-7.19704"
      gradientUnits="userSpaceOnUse">
      <stop stop-color="#0974F1" />
      <stop offset="0.185417" stop-color="#2F8AF3" />
      <stop offset="0.419792" stop-color="#54A0F6" />
      <stop offset="0.669792" stop-color="#7AB6F8" />
      <stop offset="1" stop-color="#9FCCFA" />
    </linearGradient>
    <linearGradient id="paint1_linear_508_1894" x1="37.8457" y1="4.13273e-05" x2="611.642" y2="410.684"
      gradientUnits="userSpaceOnUse">
      <stop stop-color="white" stop-opacity="0.6" />
      <stop offset="1" stop-opacity="0" />
      <stop offset="1" stop-color="white" stop-opacity="0.3" />
    </linearGradient>
    <clipPath id="clip0_508_1894">
      <rect width="358" height="220" rx="12" fill="white" />
    </clipPath>
  </defs>
</svg>