<svg width="128" height="128" viewBox="0 0 128 128" fill="none" xmlns="http://www.w3.org/2000/svg">
  <rect width="128" height="128" rx="20" fill="#000A29" />
  <path fill-rule="evenodd" clip-rule="evenodd"
    d="M108.536 58.7534L61.8754 58.6337V71.4397H108.08C108.56 68.6761 108.8 65.8172 108.8 62.8866C108.8 61.42 108.681 59.9552 108.536 58.7534ZM93.4869 77.1094C89.0705 88.2093 79.0616 95.9932 65.0676 95.9932C46.8022 95.9932 31.9927 81.17 31.9927 62.8866C31.9927 60.8135 32.1839 58.7866 32.548 56.8201L45.0664 54.5896L36.5698 46.0838L27.3135 36.8193C22.1995 44.2248 19.2002 53.2061 19.2002 62.8866C19.2002 88.2574 39.7454 108.799 65.0676 108.799C85.4461 108.799 101.336 95.5134 106.76 77.1094H93.4869Z"
    fill="white" />
  <path fill-rule="evenodd" clip-rule="evenodd"
    d="M104.67 44.306L91.7329 48.0302C86.6686 38.4196 77.0675 32.0288 65.066 32.0288C55.1523 32.0288 46.2584 36.3901 40.1961 43.3L31.1328 34.2287L21.7596 24.8462L39.2278 27.1781C46.5867 22.1438 55.485 19.1992 65.066 19.1992C83.2127 19.1992 97.0617 29.3377 104.67 44.306Z"
    fill="white" />
</svg>