<svg width="196" height="196" viewBox="0 0 196 196" fill="none" xmlns="http://www.w3.org/2000/svg">
  <g opacity="0.1">
    <path d="M112.757 63.6816H122.328V75.4531H112.757V63.6816Z" fill="white" />
    <path
      d="M124.816 126.827L123.151 117.409C126.615 116.797 129.122 113.926 129.122 110.595C129.122 108.777 128.376 107.054 127.036 105.753C125.639 104.413 123.763 103.666 121.772 103.666H113.331C103.991 103.666 96.4111 96.259 96.4111 87.1672C96.4111 82.7266 98.1912 78.5539 101.426 75.434C104.622 72.3523 108.853 70.668 113.331 70.668H121.772C130.577 70.668 137.755 77.6543 137.755 86.2484H128.185C128.185 82.9371 125.313 80.2383 121.772 80.2383H113.331C111.341 80.2383 109.465 80.9848 108.068 82.3246C106.728 83.6262 105.981 85.3488 105.981 87.1672C105.981 90.9953 109.274 94.0961 113.331 94.0961H121.772C126.251 94.0961 130.481 95.7996 133.678 98.8621C136.913 101.982 138.693 106.155 138.693 110.595C138.693 118.577 132.855 125.391 124.816 126.827ZM110.326 126.827C102.804 125.429 97.349 118.998 97.349 111.514H106.919C106.919 114.385 109.082 116.854 112.068 117.409L110.326 126.827Z"
      fill="white" />
    <path
      d="M166.179 126.902H68.9256L68.0834 123.17C67.0115 118.423 66.4756 113.236 66.4756 107.762C66.4756 89.9035 72.1795 70.227 81.7115 55.1441C82.4006 54.0531 83.1088 52.9813 83.817 51.9668C88.3342 45.5355 93.349 40.4441 98.7467 36.8266C104.795 32.7687 111.131 30.7207 117.562 30.7207C124.759 30.7207 131.803 33.2855 138.463 38.3195C144.359 42.7793 149.718 48.9809 154.388 56.752C163.308 71.5668 168.629 90.6309 168.629 107.762C168.629 113.236 168.093 118.423 167.021 123.17L166.179 126.902ZM76.7158 117.332H158.37C158.829 114.308 159.059 111.111 159.059 107.762C159.059 92.2961 154.254 75.0695 146.177 61.6902C138.004 48.1004 127.553 40.3102 117.543 40.3102C108.604 40.3102 99.4166 46.416 91.6455 57.4793C91.0139 58.3789 90.3822 59.3168 89.7889 60.2738C81.1756 73.8828 76.0268 91.6453 76.0268 107.781C76.0268 111.111 76.2564 114.308 76.7158 117.332Z"
      fill="white" />
    <path
      d="M97.9998 187.004C80.8689 187.004 65.901 185.07 53.4787 181.242C38.9893 176.782 27.8877 169.72 20.4803 160.245C15.9248 154.388 12.7475 147.574 11.0439 139.975C10.0295 135.496 9.5127 130.654 9.5127 125.562C9.5127 120.93 13.0154 117.312 17.5135 117.312H178.505C182.984 117.312 186.506 120.93 186.506 125.562C186.506 134.616 184.669 142.923 181.013 150.254C179.998 152.321 178.812 154.33 177.491 156.264C170.351 166.714 159.212 174.677 144.378 179.921C131.132 184.63 115.533 187.004 97.9998 187.004ZM19.1021 126.902C19.1787 130.787 19.6189 134.462 20.3846 137.87C21.7818 144.071 24.3658 149.622 28.06 154.35C42.9322 173.433 74.3037 177.433 97.9998 177.433C131.955 177.433 158.044 167.748 169.586 150.866C170.638 149.316 171.596 147.689 172.419 146.023C175.232 140.377 176.725 133.946 176.897 126.902H19.1021Z"
      fill="white" />
    <path
      d="M78.7254 126.902H24.4426L23.6578 123.074C22.8539 119.112 22.4328 114.825 22.4328 110.307C22.4328 94.9758 27.1988 77.9215 35.1805 64.6379C39.3723 57.6707 44.1957 52.1008 49.4977 48.1004C55.527 43.5449 61.9008 41.2289 68.4086 41.2289C76.2371 41.2289 84.0465 44.6742 91.0137 51.2012L94.0379 54.034L91.6453 57.441C91.0137 58.3406 90.4012 59.2785 89.7887 60.2355C81.1754 73.8445 76.0266 91.607 76.0266 107.743C76.0266 112.528 76.4859 116.988 77.4047 121.045L78.7254 126.902ZM32.4051 117.332H67.0496C66.6477 114.27 66.4563 111.073 66.4563 107.762C66.4563 90.0949 72.0262 70.648 81.3859 55.6227C77.1176 52.4262 72.7727 50.8184 68.3895 50.8184C48.7895 50.8184 31.984 83.5297 31.984 110.327C32.0031 112.738 32.1371 115.093 32.4051 117.332ZM24.2703 152.512H47.5262V162.083H24.2703V152.512ZM15.6953 134.137H58.6277V143.708H15.6953V134.137ZM144.225 143.363H176.725V152.934H144.225V143.363ZM112.777 8.80469H122.347V20.8441H112.777V8.80469ZM83.509 20.5576L92.022 29.071L85.2546 35.8379L76.7417 27.3248L83.509 20.5576ZM151.618 20.5639L158.385 27.3313L149.872 35.8445L143.105 29.0771L151.618 20.5639Z"
      fill="white" />
  </g>
</svg>