<svg width="200" height="200" viewBox="0 0 200 200" fill="none" xmlns="http://www.w3.org/2000/svg">
  <g opacity="0.1">
    <path
      d="M25 114.583C23.5072 114.584 22.0635 114.05 20.9302 113.078C19.7969 112.106 19.0487 110.761 18.8211 109.286C18.5935 107.81 18.9014 106.302 19.6892 105.034C20.477 103.766 21.6926 102.822 23.1161 102.372C48.8396 94.2461 73.5688 83.2559 96.8384 69.6083C123.795 53.7754 148.575 34.5014 170.557 12.2722C171.723 11.0997 173.307 10.4376 174.962 10.431C176.616 10.4244 178.205 11.0738 179.381 12.237C180.557 13.4001 181.224 14.9821 181.236 16.6362C181.247 18.2903 180.603 19.8815 179.443 21.0612C156.7 44.0645 131.059 64.0089 103.166 80.3917C79.087 94.5111 53.4995 105.883 26.8839 114.295C26.2741 114.485 25.6389 114.583 25 114.583Z"
      fill="#F7F6F0" />
    <path
      d="M175 56.2501C173.342 56.2496 171.753 55.591 170.581 54.419C169.409 53.247 168.75 51.6575 168.75 50.0001V22.9167H141.667C140.009 22.9167 138.419 22.2583 137.247 21.0862C136.075 19.9141 135.417 18.3243 135.417 16.6667C135.417 15.0091 136.075 13.4194 137.247 12.2473C138.419 11.0752 140.009 10.4167 141.667 10.4167H175C176.657 10.4172 178.247 11.0758 179.419 12.2478C180.591 13.4198 181.249 15.0093 181.25 16.6667V50.0001C181.249 51.6575 180.591 53.247 179.419 54.419C178.247 55.591 176.657 56.2496 175 56.2501ZM179.167 189.583H154.167C151.405 189.581 148.757 188.482 146.804 186.53C144.851 184.577 143.752 181.929 143.75 179.167V87.5C143.752 84.7382 144.851 82.0901 146.804 80.1372C148.757 78.1842 151.405 77.0859 154.167 77.0834H179.167C181.928 77.0859 184.576 78.1842 186.529 80.1372C188.482 82.0901 189.581 84.7382 189.583 87.5V179.167C189.581 181.929 188.482 184.577 186.529 186.53C184.576 188.482 181.928 189.581 179.167 189.583ZM156.25 177.083H177.083V89.5834H156.25V177.083ZM112.5 189.583H87.5C84.7381 189.581 82.09 188.482 80.1371 186.53C78.1841 184.577 77.0858 181.929 77.0833 179.167V120.833C77.0858 118.071 78.1841 115.423 80.1371 113.47C82.09 111.518 84.7381 110.419 87.5 110.417H112.5C115.262 110.419 117.91 111.518 119.863 113.47C121.816 115.423 122.914 118.071 122.917 120.833V179.167C122.914 181.929 121.816 184.577 119.863 186.53C117.91 188.482 115.262 189.581 112.5 189.583ZM89.5833 177.083H110.417V122.917H89.5833V177.083ZM45.8333 189.583H20.8333C18.0714 189.581 15.4234 188.482 13.4705 186.53C11.5175 184.577 10.4192 181.929 10.4167 179.167V137.5C10.4192 134.738 11.5175 132.09 13.4705 130.137C15.4234 128.184 18.0714 127.086 20.8333 127.083H45.8333C48.5952 127.086 51.2432 128.184 53.1962 130.137C55.1491 132.09 56.2474 134.738 56.25 137.5V179.167C56.2474 181.929 55.1491 184.577 53.1962 186.53C51.2432 188.482 48.5952 189.581 45.8333 189.583ZM22.9167 177.083H43.75V139.583H22.9167V177.083Z"
      fill="#F7F6F0" />
  </g>
</svg>