<svg width="25" height="24" viewBox="0 0 25 24" fill="none" xmlns="http://www.w3.org/2000/svg">
  <path d="M7.745 14.781L10.738 10.891L14.152 13.573L17.082 9.79297" stroke="#111111" stroke-width="1.5"
    stroke-linecap="round" stroke-linejoin="round" />
  <path
    d="M20.495 6.12208C21.5565 6.12208 22.417 5.26157 22.417 4.20008C22.417 3.13858 21.5565 2.27808 20.495 2.27808C19.4335 2.27808 18.573 3.13858 18.573 4.20008C18.573 5.26157 19.4335 6.12208 20.495 6.12208Z"
    stroke="#111111" stroke-width="1.5" stroke-linecap="round" stroke-linejoin="round" />
  <path
    d="M15.425 3.12012H8.15701C5.14501 3.12012 3.27802 5.25312 3.27802 8.26412V16.3471C3.27802 19.3581 5.10801 21.4821 8.15701 21.4821H16.761C19.772 21.4821 21.64 19.3581 21.64 16.3471V9.30712"
    stroke="#111111" stroke-width="1.5" stroke-linecap="round" stroke-linejoin="round" />
</svg>