<svg width="50" height="50" viewBox="0 0 50 50" fill="none" xmlns="http://www.w3.org/2000/svg">
  <rect width="50" height="50" rx="9.92355" fill="#979497" />
  <path
    d="M35.3211 15.2736C35.3211 9.63373 30.6913 5.0459 25 5.0459C19.3086 5.0459 14.6789 9.63373 14.6789 15.2736C14.6789 19.3354 17.097 22.842 20.5767 24.4784V40.1122L25 44.4954L32.3722 37.19L27.9489 32.8067L32.3722 28.4234L28.7156 24.7999C32.5786 23.3096 35.3211 19.6276 35.3211 15.2736ZM25 15.2736C23.3781 15.2736 22.0511 13.9586 22.0511 12.3514C22.0511 10.7442 23.3781 9.42918 25 9.42918C26.6219 9.42918 27.9489 10.7442 27.9489 12.3514C27.9489 13.9586 26.6219 15.2736 25 15.2736Z"
    fill="white" />
</svg>