<svg width="24" height="24" viewBox="0 0 24 24" fill="none" xmlns="http://www.w3.org/2000/svg">
  <path
    d="M8.72971 5.09941C9.12845 5.07048 9.49579 5.34041 9.57623 5.73998C9.66338 6.17284 9.3808 6.59393 8.94509 6.6805C5.82643 7.33954 3.59908 10.0792 3.60667 13.2467C3.5994 13.4943 3.61407 13.742 3.6505 13.9869C4.03513 17.1495 6.61427 19.6021 9.81143 19.8456C13.0086 20.0891 15.9339 18.0558 16.7993 14.9884L16.8364 14.8878C16.995 14.5331 17.3934 14.337 17.7811 14.4398C17.9885 14.489 18.1671 14.6195 18.2761 14.8016C18.3851 14.9837 18.4152 15.2019 18.3597 15.4064C17.7643 17.5651 16.3122 19.3911 14.3361 20.4661C11.9113 21.8013 8.97567 21.8458 6.51098 20.5848C4.04629 19.3238 2.37792 16.9237 2.06387 14.1872C2.01293 13.8677 1.99238 13.544 2.00251 13.2206C1.99827 9.29931 4.76558 5.91373 8.62952 5.11297L8.72971 5.09941ZM13.442 2.50041C17.7166 2.62467 21.3016 5.74419 21.9887 9.93749H21.9975V10.0768L22 10.2234C21.9887 10.5639 21.8587 10.8917 21.6297 11.1493C21.3679 11.4438 20.9985 11.622 20.6037 11.6444L14.0293 12.0798H13.9241C13.0904 12.078 12.3971 11.4422 12.3287 10.6167L11.8904 4.07665C11.8641 3.6641 12.0136 3.25955 12.3024 2.96196C12.6014 2.65775 13.0141 2.49058 13.442 2.50041ZM13.4858 4.08536L13.9241 10.5122L20.4109 10.0855C19.8051 6.71929 16.9251 4.224 13.4858 4.08536Z"
    fill="#111111" />
</svg>