<svg width="25" height="24" viewBox="0 0 25 24" fill="none" xmlns="http://www.w3.org/2000/svg">
  <path
    d="M18.095 10.9319C18.4806 10.9391 18.8637 10.8693 19.222 10.7267C19.5803 10.5841 19.9066 10.3715 20.1818 10.1014C20.457 9.83126 20.6756 9.50898 20.8248 9.1534C20.974 8.79781 21.0509 8.41605 21.0509 8.03042C21.0509 7.64479 20.974 7.26303 20.8248 6.90744C20.6756 6.55185 20.457 6.22957 20.1818 5.95944C19.9066 5.6893 19.5803 5.47672 19.222 5.33412C18.8637 5.19152 18.4806 5.12176 18.095 5.12892M19.429 14.0849C19.908 14.1179 20.383 14.1849 20.852 14.2909C21.502 14.4179 22.285 14.6849 22.564 15.2689C22.742 15.6429 22.742 16.0789 22.564 16.4529C22.286 17.0369 21.503 17.3029 20.852 17.4369M6.79001 10.9319C6.40445 10.9391 6.02133 10.8693 5.66303 10.7267C5.30474 10.5841 4.97845 10.3715 4.70325 10.1014C4.42805 9.83126 4.20945 9.50898 4.06023 9.1534C3.911 8.79781 3.83414 8.41605 3.83414 8.03042C3.83414 7.64479 3.911 7.26303 4.06023 6.90744C4.20945 6.55185 4.42805 6.22957 4.70325 5.95944C4.97845 5.6893 5.30474 5.47672 5.66303 5.33412C6.02133 5.19152 6.40445 5.12176 6.79001 5.12892M5.45601 14.0849C4.97701 14.1179 4.50201 14.1849 4.03301 14.2909C3.38301 14.4179 2.59901 14.6849 2.32201 15.2689C2.14201 15.6429 2.14201 16.0789 2.32201 16.4529C2.59901 17.0369 3.38201 17.3029 4.03301 17.4369"
    stroke="#111111" stroke-width="1.5" stroke-linecap="round" stroke-linejoin="round" />
  <path
    d="M12.438 14.71C15.685 14.71 18.458 15.2 18.458 17.167C18.458 19.132 15.703 19.642 12.438 19.642C9.18999 19.642 6.41699 19.151 6.41699 17.185C6.41699 15.218 9.17399 14.71 12.438 14.71ZM12.438 11.905C11.9306 11.9069 11.4279 11.8083 10.9588 11.6149C10.4897 11.4216 10.0635 11.1373 9.70479 10.7785C9.34606 10.4197 9.0619 9.99343 8.86868 9.52428C8.67546 9.05514 8.57701 8.55239 8.57899 8.04501C8.57741 7.53789 8.67615 7.03547 8.86955 6.56667C9.06295 6.09787 9.34717 5.67196 9.70585 5.31346C10.0645 4.95496 10.4906 4.67096 10.9595 4.4778C11.4284 4.28465 11.9309 4.18616 12.438 4.18801C12.9451 4.1863 13.4476 4.28491 13.9164 4.47819C14.3853 4.67146 14.8112 4.95557 15.1698 5.31417C15.5284 5.67276 15.8125 6.09874 16.0058 6.56759C16.1991 7.03644 16.2977 7.53889 16.296 8.04601C16.2978 8.55322 16.1993 9.05578 16.0061 9.52474C15.8129 9.99371 15.5288 10.4198 15.1702 10.7785C14.8116 11.1372 14.3856 11.4214 13.9166 11.6147C13.4477 11.8081 12.9452 11.9067 12.438 11.905Z"
    stroke="#111111" stroke-width="1.5" stroke-linecap="round" stroke-linejoin="round" />
</svg>