<svg width="24" height="24" viewBox="0 0 24 24" fill="none" xmlns="http://www.w3.org/2000/svg">
  <path
    d="M7.3314 2.00049C3.9304 2.00049 2.0104 3.92949 2.0004 7.33049V16.6705C2.0004 20.0705 3.9304 22.0005 7.3314 22.0005H16.6704C20.0714 22.0005 22.0004 20.0705 22.0004 16.6705V7.33049C22.0004 3.92949 20.0714 2.00049 16.6704 2.00049H7.3314ZM11.5004 6.13049C11.7814 5.96049 12.1214 5.96049 12.3904 6.13049C12.6614 6.29949 12.8104 6.61049 12.7814 6.92049V17.1105C12.7304 17.5405 12.3714 17.8605 11.9514 17.8605C11.5204 17.8605 11.1614 17.5405 11.1214 17.1105V6.92049C11.0814 6.61049 11.2304 6.29949 11.5004 6.13049ZM16.1704 9.41049C16.4404 9.24049 16.7814 9.24049 17.0504 9.41049C17.3214 9.58049 17.4704 9.88949 17.4404 10.2005V17.1105C17.4014 17.5405 17.0414 17.8605 16.6114 17.8605C16.1804 17.8605 15.8214 17.5405 15.7814 17.1105V10.2005C15.7504 9.88949 15.9014 9.58049 16.1704 9.41049ZM6.9114 13.0405C7.1804 12.8705 7.5204 12.8705 7.8004 13.0405C8.0714 13.2105 8.2204 13.5095 8.1804 13.8305V17.1105C8.1404 17.5405 7.7814 17.8605 7.3504 17.8605C6.9304 17.8605 6.5714 17.5405 6.5204 17.1105V13.8305C6.4914 13.5095 6.6404 13.2105 6.9114 13.0405Z"
    fill="#007AFF" />
</svg>