<svg width="21" height="20" viewBox="0 0 21 20" fill="none" xmlns="http://www.w3.org/2000/svg">
  <path fill-rule="evenodd" clip-rule="evenodd"
    d="M19.95 9.10938L1.95 0.109382C1.58805 -0.0773738 1.149 -0.0259535 0.840001 0.239382C0.532272 0.506642 0.417539 0.933923 0.550001 1.31938L3.5 9.99938L0.600001 18.6794C0.499154 18.9768 0.543895 19.3043 0.720817 19.5638C0.897739 19.8233 1.18629 19.9846 1.5 19.9994C1.65654 19.9984 1.81068 19.9608 1.95 19.8894L19.95 10.8894C20.284 10.7183 20.494 10.3746 20.494 9.99938C20.494 9.62414 20.284 9.28048 19.95 9.10938ZM3.21 16.9994L5.21 10.9994H15.21L3.21 16.9994ZM3.21 2.99938L5.21 8.99938H15.26L3.21 2.99938Z"
    fill="#007AFF" />
</svg>